#Comment line ignore any data following # character 
#Hierarchical Translation and Rotation (.htr) file 
[Header]	
#Header keywords are followed by a single value 
FileType HTR		#Single word string
DataType HTRS		#Translation followed by rotation and scale data
FileVersion 1		#integer
NumSegments 84		#integer
NumFrames 2		#integer
DataFrameRate 30		#integer, data frame rate in this file
EulerRotationOrder ZYX
CalibrationUnits mm
RotationUnits Degrees
GlobalAxisofGravity Y
BoneLengthAxis Y
ScaleFactor 1.00
[SegmentNames&Hierarchy]
#CHILD	PARENT
MASTER GLOBAL
root MASTER
chest root
L_mid_tent01 root
R_mid_tent01 root
spine01 root
Bip01_Neck chest
L_humerus chest
R_humerus chest
weapon_bone chest
Bip01_Head Bip01_Neck
eye_left_bone Bip01_Head
eye_right_bone Bip01_Head
L_forearm L_humerus
L_front_hand L_forearm
L_weapon_bone L_forearm
L_front_hand01_01 L_front_hand
L_front_hand02_01 L_front_hand
L_front_hand03_01 L_front_hand
L_front_hand01_02 L_front_hand01_01
L_front_hand02_02 L_front_hand02_01
L_front_hand03_02 L_front_hand03_01
R_forearm R_humerus
R_front_hand R_forearm
R_weapon_bone R_forearm
R_front_hand01_01 R_front_hand
R_front_hand02_01 R_front_hand
R_front_hand03_01 R_front_hand
R_front_hand01_02 R_front_hand01_01
R_front_hand02_02 R_front_hand02_01
R_front_hand03_02 R_front_hand03_01
null_rope01_connect L_mid_tent01
Rope1_Seg01 null_rope01_connect
Rope1_Seg02 Rope1_Seg01
Rope1_Seg03 Rope1_Seg02
Rope1_Seg04 Rope1_Seg03
Rope1_Seg05 Rope1_Seg04
Rope1_Seg06 Rope1_Seg05
Rope1_Seg07 Rope1_Seg06
Rope1_Seg09 Rope1_Seg07
L_mid_hand01 Rope1_Seg09
L_mid_hand02 Rope1_Seg09
L_mid_hand03 Rope1_Seg09
null_rope02_connect R_mid_tent01
Rope2_Seg01 null_rope02_connect
Rope2_Seg02 Rope2_Seg01
Rope2_Seg03 Rope2_Seg02
Rope2_Seg04 Rope2_Seg03
Rope2_Seg05 Rope2_Seg04
Rope2_Seg06 Rope2_Seg05
Rope2_Seg07 Rope2_Seg06
Rope2_Seg09 Rope2_Seg07
R_mid_hand01 Rope2_Seg09
R_mid_hand02 Rope2_Seg09
R_mid_hand03 Rope2_Seg09
spine02 spine01
spine03 spine02
pelvis spine03
null_rope03_connect pelvis
null_rope04_connect pelvis
Rope3_Seg01 null_rope03_connect
Rope3_Seg02 Rope3_Seg01
Rope3_Seg03 Rope3_Seg02
Rope3_Seg04 Rope3_Seg03
Rope3_Seg05 Rope3_Seg04
Rope3_Seg06 Rope3_Seg05
Rope3_Seg07 Rope3_Seg06
Rope3_Seg08 Rope3_Seg07
Rope3_Seg09 Rope3_Seg08
R_rear_hand01 Rope3_Seg09
R_rear_hand02 Rope3_Seg09
R_rear_hand03 Rope3_Seg09
Rope4_Seg01 null_rope04_connect
Rope4_Seg02 Rope4_Seg01
Rope4_Seg03 Rope4_Seg02
Rope4_Seg04 Rope4_Seg03
Rope4_Seg05 Rope4_Seg04
Rope4_Seg06 Rope4_Seg05
Rope4_Seg07 Rope4_Seg06
Rope4_Seg08 Rope4_Seg07
Rope4_Seg09 Rope4_Seg08
L_rear_hand01 Rope4_Seg09
L_rear_hand02 Rope4_Seg09
L_rear_hand03 Rope4_Seg09
[BasePosition]
#SegmentName Tx, Ty, Tz, Rx, Ry, Rz, BoneLength
MASTER 0.000000 0.000000 0.000000 -90.000000 0.000000 0.000000 10.000000 
root 0.000000 0.000000 0.000000 0.000000 0.000000 0.000000 10.000000 
chest 0.000000 0.000000 0.000000 0.000000 0.000000 0.000000 10.000000 
L_mid_tent01 0.000000 0.000000 0.000000 0.000000 0.000000 0.000000 10.000000 
R_mid_tent01 0.000000 0.000000 0.000000 0.000000 0.000000 0.000000 10.000000 
spine01 0.000000 0.000000 0.000000 0.000000 0.000000 0.000000 10.000000 
Bip01_Neck 0.000000 0.000000 0.000000 0.000000 0.000000 0.000000 10.000000 
L_humerus 0.000000 0.000000 0.000000 0.000000 0.000000 0.000000 10.000000 
R_humerus 0.000000 0.000000 0.000000 0.000000 0.000000 0.000000 10.000000 
weapon_bone 0.000000 0.000000 0.000000 0.000000 0.000000 0.000000 10.000000 
Bip01_Head 0.000000 0.000000 0.000000 0.000000 0.000000 0.000000 10.000000 
eye_left_bone 0.000000 0.000000 0.000000 0.000000 0.000000 0.000000 10.000000 
eye_right_bone 0.000000 0.000000 0.000000 0.000000 0.000000 0.000000 10.000000 
L_forearm 0.000000 0.000000 0.000000 0.000000 0.000000 0.000000 10.000000 
L_front_hand 0.000000 0.000000 0.000000 0.000000 0.000000 0.000000 10.000000 
L_weapon_bone 0.000000 0.000000 0.000000 0.000000 0.000000 0.000000 10.000000 
L_front_hand01_01 0.000000 0.000000 0.000000 0.000000 0.000000 0.000000 10.000000 
L_front_hand02_01 0.000000 0.000000 0.000000 0.000000 0.000000 0.000000 10.000000 
L_front_hand03_01 0.000000 0.000000 0.000000 0.000000 0.000000 0.000000 10.000000 
L_front_hand01_02 0.000000 0.000000 0.000000 0.000000 0.000000 0.000000 10.000000 
L_front_hand02_02 0.000000 0.000000 0.000000 0.000000 0.000000 0.000000 10.000000 
L_front_hand03_02 0.000000 0.000000 0.000000 0.000000 0.000000 0.000000 10.000000 
R_forearm 0.000000 0.000000 0.000000 0.000000 0.000000 0.000000 10.000000 
R_front_hand 0.000000 0.000000 0.000000 0.000000 0.000000 0.000000 10.000000 
R_weapon_bone 0.000000 0.000000 0.000000 0.000000 0.000000 0.000000 10.000000 
R_front_hand01_01 0.000000 0.000000 0.000000 0.000000 0.000000 0.000000 10.000000 
R_front_hand02_01 0.000000 0.000000 0.000000 0.000000 0.000000 0.000000 10.000000 
R_front_hand03_01 0.000000 0.000000 0.000000 0.000000 0.000000 0.000000 10.000000 
R_front_hand01_02 0.000000 0.000000 0.000000 0.000000 0.000000 0.000000 10.000000 
R_front_hand02_02 0.000000 0.000000 0.000000 0.000000 0.000000 0.000000 10.000000 
R_front_hand03_02 0.000000 0.000000 0.000000 0.000000 0.000000 0.000000 10.000000 
null_rope01_connect 0.000000 0.000000 0.000000 0.000000 0.000000 0.000000 10.000000 
Rope1_Seg01 0.000000 0.000000 0.000000 0.000000 0.000000 0.000000 10.000000 
Rope1_Seg02 0.000000 0.000000 0.000000 0.000000 0.000000 0.000000 10.000000 
Rope1_Seg03 0.000000 0.000000 0.000000 0.000000 0.000000 0.000000 10.000000 
Rope1_Seg04 0.000000 0.000000 0.000000 0.000000 0.000000 0.000000 10.000000 
Rope1_Seg05 0.000000 0.000000 0.000000 0.000000 0.000000 0.000000 10.000000 
Rope1_Seg06 0.000000 0.000000 0.000000 0.000000 0.000000 0.000000 10.000000 
Rope1_Seg07 0.000000 0.000000 0.000000 0.000000 0.000000 0.000000 10.000000 
Rope1_Seg09 0.000000 0.000000 0.000000 0.000000 0.000000 0.000000 10.000000 
L_mid_hand01 0.000000 0.000000 0.000000 0.000000 0.000000 0.000000 10.000000 
L_mid_hand02 0.000000 0.000000 0.000000 0.000000 0.000000 0.000000 10.000000 
L_mid_hand03 0.000000 0.000000 0.000000 0.000000 0.000000 0.000000 10.000000 
null_rope02_connect 0.000000 0.000000 0.000000 0.000000 0.000000 0.000000 10.000000 
Rope2_Seg01 0.000000 0.000000 0.000000 0.000000 0.000000 0.000000 10.000000 
Rope2_Seg02 0.000000 0.000000 0.000000 0.000000 0.000000 0.000000 10.000000 
Rope2_Seg03 0.000000 0.000000 0.000000 0.000000 0.000000 0.000000 10.000000 
Rope2_Seg04 0.000000 0.000000 0.000000 0.000000 0.000000 0.000000 10.000000 
Rope2_Seg05 0.000000 0.000000 0.000000 0.000000 0.000000 0.000000 10.000000 
Rope2_Seg06 0.000000 0.000000 0.000000 0.000000 0.000000 0.000000 10.000000 
Rope2_Seg07 0.000000 0.000000 0.000000 0.000000 0.000000 0.000000 10.000000 
Rope2_Seg09 0.000000 0.000000 0.000000 0.000000 0.000000 0.000000 10.000000 
R_mid_hand01 0.000000 0.000000 0.000000 0.000000 0.000000 0.000000 10.000000 
R_mid_hand02 0.000000 0.000000 0.000000 0.000000 0.000000 0.000000 10.000000 
R_mid_hand03 0.000000 0.000000 0.000000 0.000000 0.000000 0.000000 10.000000 
spine02 0.000000 0.000000 0.000000 0.000000 0.000000 0.000000 10.000000 
spine03 0.000000 0.000000 0.000000 0.000000 0.000000 0.000000 10.000000 
pelvis 0.000000 0.000000 0.000000 0.000000 0.000000 0.000000 10.000000 
null_rope03_connect 0.000000 0.000000 0.000000 0.000000 0.000000 0.000000 10.000000 
null_rope04_connect 0.000000 0.000000 0.000000 0.000000 0.000000 0.000000 10.000000 
Rope3_Seg01 0.000000 0.000000 0.000000 0.000000 0.000000 0.000000 10.000000 
Rope3_Seg02 0.000000 0.000000 0.000000 0.000000 0.000000 0.000000 10.000000 
Rope3_Seg03 0.000000 0.000000 0.000000 0.000000 0.000000 0.000000 10.000000 
Rope3_Seg04 0.000000 0.000000 0.000000 0.000000 0.000000 0.000000 10.000000 
Rope3_Seg05 0.000000 0.000000 0.000000 0.000000 0.000000 0.000000 10.000000 
Rope3_Seg06 0.000000 0.000000 0.000000 0.000000 0.000000 0.000000 10.000000 
Rope3_Seg07 0.000000 0.000000 0.000000 0.000000 0.000000 0.000000 10.000000 
Rope3_Seg08 0.000000 0.000000 0.000000 0.000000 0.000000 0.000000 10.000000 
Rope3_Seg09 0.000000 0.000000 0.000000 0.000000 0.000000 0.000000 10.000000 
R_rear_hand01 0.000000 0.000000 0.000000 0.000000 0.000000 0.000000 10.000000 
R_rear_hand02 0.000000 0.000000 0.000000 0.000000 0.000000 0.000000 10.000000 
R_rear_hand03 0.000000 0.000000 0.000000 0.000000 0.000000 0.000000 10.000000 
Rope4_Seg01 0.000000 0.000000 0.000000 0.000000 0.000000 0.000000 10.000000 
Rope4_Seg02 0.000000 0.000000 0.000000 0.000000 0.000000 0.000000 10.000000 
Rope4_Seg03 0.000000 0.000000 0.000000 0.000000 0.000000 0.000000 10.000000 
Rope4_Seg04 0.000000 0.000000 0.000000 0.000000 0.000000 0.000000 10.000000 
Rope4_Seg05 0.000000 0.000000 0.000000 0.000000 0.000000 0.000000 10.000000 
Rope4_Seg06 0.000000 0.000000 0.000000 0.000000 0.000000 0.000000 10.000000 
Rope4_Seg07 0.000000 0.000000 0.000000 0.000000 0.000000 0.000000 10.000000 
Rope4_Seg08 0.000000 0.000000 0.000000 0.000000 0.000000 0.000000 10.000000 
Rope4_Seg09 0.000000 0.000000 0.000000 0.000000 0.000000 0.000000 10.000000 
L_rear_hand01 0.000000 0.000000 0.000000 0.000000 0.000000 0.000000 10.000000 
L_rear_hand02 0.000000 0.000000 0.000000 0.000000 0.000000 0.000000 10.000000 
L_rear_hand03 0.000000 0.000000 0.000000 0.000000 0.000000 0.000000 10.000000 
#Beginning of Data. Separated by tabs
#Fr	Tx	Ty	Tz	Rx	Ry	Rz	SF
[MASTER]
14 0.000000 0.000000 0.000000 0.001660 0.001660 0.001660 0.000000
15 0.000000 0.000000 0.000000 0.001660 0.001660 0.001660 0.000000
[root]
14 528.611511 -3.796822 1349.393188 -90.760262 -27.624413 -90.453865 1449.243408
15 557.641174 -33.673759 1360.550659 -91.272667 -31.651968 -90.317451 1470.780518
[chest]
14 -84.512650 -34.090519 0.000000 4.494290 3.376677 164.179672 91.129311
15 -84.512650 -34.090519 0.000000 4.985153 3.164085 167.397430 91.129311
[L_mid_tent01]
14 27.299213 22.178747 -249.918579 -2.773690 35.901764 63.833740 252.381546
15 27.299206 22.178768 -249.918579 -4.123991 35.239479 61.203876 252.381546
[R_mid_tent01]
14 23.228794 24.509907 226.238495 163.054504 -26.275648 81.341370 228.744751
15 23.228794 24.509907 226.238495 164.538605 -26.557196 78.771156 228.744751
[spine01]
14 -0.361383 -0.195265 0.000000 0.001921 0.001349 19.830379 0.410763
15 -0.361383 -0.195265 0.000000 0.001922 0.001348 19.926966 0.410763
[Bip01_Neck]
14 165.484543 71.581718 0.000119 176.643677 -1.657967 43.431911 180.302734
15 165.484543 71.581718 0.000119 176.643677 -1.657967 43.431911 180.302734
[L_humerus]
14 -13.983130 -135.272980 -120.471481 175.331604 26.028517 -159.986801 181.680161
15 -13.983130 -135.272980 -120.471481 174.585800 27.812397 -159.602768 181.680161
[R_humerus]
14 -13.983309 -135.273102 125.287651 -176.042984 -13.517077 -151.175339 184.909012
15 -13.983309 -135.273102 125.287651 -174.779327 -15.165701 -149.881210 184.909012
[weapon_bone]
14 235.964890 -300.705902 0.000000 0.000000 -89.951546 -128.212341 382.234833
15 235.964890 -300.705902 0.000000 0.000000 -89.951546 -128.212341 382.234833
[Bip01_Head]
14 213.443176 185.718552 11.737569 -0.434766 11.114590 -40.830433 283.173340
15 213.443695 185.717010 11.757247 0.077791 11.114191 -40.830647 283.173523
[eye_left_bone]
14 -24.626970 125.451866 -64.772606 0.000000 -90.000000 -99.840431 143.318359
15 -24.626970 125.451866 -64.772606 0.000000 -90.000000 -99.840431 143.318359
[eye_right_bone]
14 -24.626970 125.451866 64.327362 0.000000 -89.965736 80.156380 143.117676
15 -24.626970 125.451866 64.327362 0.000000 -89.965736 80.156380 143.117676
[L_forearm]
14 322.776093 0.000000 -0.000119 0.000247 0.002334 -77.900185 322.776093
15 322.776093 0.000000 -0.000119 0.000196 0.002339 -80.428543 322.776093
[L_front_hand]
14 241.149185 -0.042021 -3.300071 149.893951 -1.837326 -27.423067 241.171753
15 241.149185 -0.042021 -3.300071 149.893951 -1.837326 -27.423067 241.171753
[L_weapon_bone]
14 156.183838 0.000000 0.000000 0.000014 0.000007 0.000001 156.183838
15 156.183838 0.000000 0.000000 0.000014 0.000007 0.000001 156.183838
[L_front_hand01_01]
14 86.095154 20.947098 -0.655860 -0.366594 -0.477154 75.385574 88.609184
15 86.095154 20.947098 -0.655860 -0.366594 -0.477154 75.385574 88.609184
[L_front_hand02_01]
14 86.935165 -11.437475 24.513514 154.399796 -59.883835 -61.369587 91.046425
15 86.935165 -11.437475 24.513514 154.399796 -59.883835 -61.369587 91.046425
[L_front_hand03_01]
14 86.637497 -14.123976 -20.424902 -153.913849 58.118130 -62.702866 90.126129
15 86.637497 -14.123976 -20.424902 -153.913849 58.118130 -62.702866 90.126129
[L_front_hand01_02]
14 71.020905 -0.000179 0.000030 0.000334 -0.002323 -106.379684 71.020905
15 71.020905 -0.000179 0.000030 0.000334 -0.002323 -106.379684 71.020905
[L_front_hand02_02]
14 71.020927 -0.000119 0.000060 0.000334 -0.002323 -106.379684 71.020927
15 71.020927 -0.000119 0.000060 0.000334 -0.002323 -106.379684 71.020927
[L_front_hand03_02]
14 71.020905 -0.000060 0.000060 0.000334 -0.002323 -106.379684 71.020905
15 71.020905 -0.000060 0.000060 0.000334 -0.002323 -106.379684 71.020905
[R_forearm]
14 322.776428 -0.000060 0.000030 0.179961 -0.111487 -59.713032 322.776428
15 322.776428 -0.000060 0.000030 0.184605 -0.099675 -62.874863 322.776428
[R_front_hand]
14 238.847015 -0.006795 2.210259 -8.879457 -10.642941 -26.315098 238.857239
15 238.847015 -0.006795 2.210259 -8.879457 -10.642941 -26.315098 238.857239
[R_weapon_bone]
14 155.664093 0.002503 -0.000030 0.003487 0.001180 -90.988930 155.664078
15 155.664093 0.002503 -0.000030 0.003487 0.001180 -90.988930 155.664078
[R_front_hand01_01]
14 87.624611 14.231146 22.918642 -154.633514 -59.950634 61.746063 91.683487
15 87.624611 14.231146 22.918642 -154.633514 -59.950634 61.746063 91.683487
[R_front_hand02_01]
14 89.356956 14.367283 -19.491137 154.602661 58.302849 63.744389 92.579636
15 89.356956 14.367283 -19.491137 154.602661 58.302849 63.744389 92.579636
[R_front_hand03_01]
14 87.286232 -22.307278 -0.143439 0.162155 -0.423168 -75.767906 90.091743
15 87.286232 -22.307278 -0.143439 0.162155 -0.423168 -75.767921 90.091743
[R_front_hand01_02]
14 71.020905 0.000060 0.000119 0.002323 -0.000334 106.381714 71.020905
15 71.020905 0.000060 0.000119 0.002323 -0.000334 106.381714 71.020905
[R_front_hand02_02]
14 71.020844 -0.000030 -0.000119 0.002323 -0.000334 106.381714 71.020836
15 71.020844 -0.000030 -0.000119 0.002323 -0.000334 106.381714 71.020836
[R_front_hand03_02]
14 71.020905 0.000000 0.000030 0.002323 -0.000334 106.381714 71.020905
15 71.020905 0.000000 0.000030 0.002323 -0.000334 106.381714 71.020905
[null_rope01_connect]
14 328.732483 0.000000 -0.000238 -130.908066 -52.954205 -176.198975 328.732483
15 328.732483 0.000000 -0.000238 -127.063293 -53.111977 -173.704681 328.732483
[Rope1_Seg01]
14 0.000003 -0.000056 0.000055 146.951447 47.879974 -174.661606 0.000079
15 0.000006 -0.000056 0.000059 157.269516 49.318665 -164.776901 0.000082
[Rope1_Seg02]
14 139.999863 -0.000179 0.000000 -9.711356 13.536317 -3.702816 139.999863
15 139.999863 -0.000179 0.000000 -11.381872 12.545253 -2.708456 139.999863
[Rope1_Seg03]
14 139.999924 0.000060 -0.000060 -8.329212 8.843420 -2.608160 139.999924
15 139.999924 0.000060 -0.000060 -7.864969 6.987727 -1.646443 139.999924
[Rope1_Seg04]
14 139.999924 -0.000060 -0.000119 -12.779468 6.031846 4.505107 139.999924
15 139.999924 -0.000060 -0.000119 -13.481146 5.460976 4.762249 139.999924
[Rope1_Seg05]
14 139.999832 0.000119 -0.000060 -11.349912 3.290620 7.965299 139.999832
15 139.999832 0.000119 -0.000060 -11.796897 3.092482 7.716400 139.999832
[Rope1_Seg06]
14 139.999954 0.000119 -0.000060 -6.668623 1.918929 5.575306 139.999954
15 139.999954 0.000119 -0.000060 -6.351474 1.495306 5.111966 139.999954
[Rope1_Seg07]
14 139.999985 0.000060 0.000000 -4.035136 0.894551 4.118235 139.999985
15 139.999985 0.000060 0.000000 -3.984149 0.687088 3.902901 139.999985
[Rope1_Seg09]
14 121.602913 0.000119 -0.000089 -89.793175 -1.359789 0.847147 121.602913
15 121.602913 0.000119 -0.000089 -89.793175 -1.359789 0.847147 121.602913
[L_mid_hand01]
14 103.859421 1.038730 8.195221 109.056198 -40.604698 -13.201401 104.187431
15 103.859421 1.038730 8.195221 109.056198 -40.604698 -13.201401 104.187431
[L_mid_hand02]
14 105.572853 -4.139662 -10.864139 -146.713593 31.476528 -37.902313 106.211075
15 105.572853 -4.139662 -10.864139 -146.713593 31.476517 -37.902306 106.211075
[L_mid_hand03]
14 104.641464 17.579376 -3.913581 -14.267233 12.322316 43.898396 106.179977
15 104.641464 17.579376 -3.913581 -14.267233 12.322316 43.898396 106.179977
[null_rope02_connect]
14 328.732849 0.000179 -0.000119 -108.525887 60.049965 31.301250 328.732849
15 328.732849 0.000179 -0.000119 -103.981789 60.786438 29.672770 328.732849
[Rope2_Seg01]
14 0.000010 0.000090 0.000073 -163.230957 52.037430 -46.897491 0.000116
15 0.000014 0.000091 0.000070 -175.408447 45.054527 -51.967182 0.000116
[Rope2_Seg02]
14 139.999741 -0.000060 -0.000119 -17.899576 8.497490 8.200210 139.999756
15 139.999741 -0.000060 -0.000119 -20.797457 7.128786 7.996609 139.999756
[Rope2_Seg03]
14 140.000107 0.000030 0.000000 -19.122896 6.381179 9.725933 140.000107
15 140.000107 0.000030 0.000000 -19.340757 4.209468 9.080503 140.000107
[Rope2_Seg04]
14 139.999802 0.000000 -0.000060 -15.953726 2.472886 10.626218 139.999802
15 139.999802 0.000000 -0.000060 -14.302822 0.836747 9.028159 139.999802
[Rope2_Seg05]
14 139.999985 -0.000060 0.000119 -10.429951 -8.280930 14.128195 139.999985
15 139.999985 -0.000060 0.000119 -9.271874 -6.855619 11.201019 139.999985
[Rope2_Seg06]
14 139.999893 -0.000030 -0.000119 -4.023596 -8.955486 9.485007 139.999893
15 139.999893 -0.000030 -0.000119 -4.180830 -7.990351 8.401908 139.999893
[Rope2_Seg07]
14 139.999893 0.000060 -0.000060 -1.599271 -4.931886 5.295392 139.999893
15 139.999893 0.000060 -0.000060 -1.896385 -4.906476 5.089869 139.999893
[Rope2_Seg09]
14 121.338966 0.000089 -0.000060 33.793236 -1.359788 -0.847141 121.338966
15 121.338966 0.000089 -0.000060 33.793236 -1.359788 -0.847141 121.338966
[R_mid_hand01]
14 104.680779 11.144459 -10.335981 -37.204079 31.906813 37.576267 105.778534
15 104.680779 11.144459 -10.335981 -37.204079 31.906813 37.576260 105.778534
[R_mid_hand02]
14 104.070427 2.443552 8.231699 70.367462 -42.427391 14.067809 104.424065
15 104.070427 2.443552 8.231699 70.367462 -42.427391 14.067809 104.424065
[R_mid_hand03]
14 106.028137 -11.221827 -5.996406 -169.893616 12.226661 -47.211025 106.788818
15 106.028137 -11.221827 -5.996406 -169.893616 12.226661 -47.211029 106.788818
[spine02]
14 129.756927 0.001550 0.000119 -0.127771 -4.057965 -6.045663 129.756927
15 129.756927 0.001550 0.000119 -0.106572 -4.058714 -6.345382 129.756927
[spine03]
14 78.614029 0.083176 -4.898970 1.605992 3.961293 12.195790 78.766563
15 78.614029 0.083116 -4.898972 1.618756 3.956130 12.382119 78.766563
[pelvis]
14 169.435242 0.051022 0.000000 -0.030458 -0.188159 5.436547 169.435257
15 169.435242 0.051022 0.000000 -0.031709 -0.187869 5.814280 169.435257
[null_rope03_connect]
14 -1.257226 -2.466202 137.391083 -96.822166 -89.373802 -176.930618 137.418976
15 -1.257226 -2.466202 137.391083 -122.490555 -89.114861 -147.602310 137.418976
[null_rope04_connect]
14 -1.259640 -2.480268 -137.844437 -96.822166 -89.373802 -176.930618 137.872513
15 -1.259640 -2.480268 -137.844437 -122.490555 -89.114861 -147.602310 137.872513
[Rope3_Seg01]
14 0.000010 0.000038 -0.000114 -156.645920 -49.803211 -51.091614 0.000121
15 0.000010 0.000038 -0.000114 -155.714401 -50.981937 -52.985744 0.000121
[Rope3_Seg02]
14 139.999924 -0.000119 0.000060 5.689886 -7.898368 13.950911 139.999924
15 139.999924 -0.000119 0.000060 4.336047 -5.537436 10.963274 139.999924
[Rope3_Seg03]
14 139.999924 -0.000119 0.000119 2.903246 -5.831563 8.138580 139.999924
15 139.999924 -0.000119 0.000119 2.109494 -3.923109 4.984406 139.999924
[Rope3_Seg04]
14 139.999924 0.000119 0.000000 1.615409 -3.574503 6.571191 139.999924
15 139.999924 0.000119 0.000000 1.270752 -2.638387 3.346944 139.999924
[Rope3_Seg05]
14 139.999924 -0.000238 0.000060 0.467106 -0.707133 29.100264 139.999924
15 139.999924 -0.000238 0.000060 1.753608 -1.410883 26.421417 139.999924
[Rope3_Seg06]
14 139.999893 -0.000119 -0.000060 -7.555991 0.444489 31.160618 139.999893
15 139.999893 -0.000119 -0.000060 -5.698603 0.248269 32.961048 139.999893
[Rope3_Seg07]
14 139.999771 0.000060 -0.000119 -6.642041 -1.706629 11.539940 139.999771
15 139.999771 0.000060 -0.000119 -5.772922 -1.419845 12.463402 139.999771
[Rope3_Seg08]
14 139.999985 -0.000060 0.000000 -4.075270 -1.462676 5.489983 139.999985
15 139.999985 -0.000060 0.000000 -3.606266 -1.278039 5.933144 139.999985
[Rope3_Seg09]
14 90.185997 -0.000179 -0.000060 89.793228 -1.359877 -0.847183 90.185997
15 90.185997 -0.000179 -0.000060 89.793228 -1.359877 -0.847183 90.185997
[R_rear_hand01]
14 103.366196 -6.073594 -10.757982 -164.755127 19.627697 -40.352161 104.101845
15 103.366196 -6.073594 -10.757982 -164.755127 19.627697 -40.352161 104.101845
[R_rear_hand02]
14 100.509819 12.039542 -7.992327 -30.792645 24.782444 38.141533 101.543350
15 100.509819 12.039542 -7.992327 -30.792645 24.782444 38.141533 101.543350
[R_rear_hand03]
14 101.539970 5.215704 5.435467 82.448349 -41.048256 8.840378 101.819031
15 101.539970 5.215704 5.435467 82.448349 -41.048256 8.840378 101.819031
[Rope4_Seg01]
14 -0.000016 -0.000049 -0.000153 61.599537 -19.597122 -145.014801 0.000161
15 -0.000015 -0.000047 -0.000153 68.496841 -25.913824 -146.171021 0.000160
[Rope4_Seg02]
14 139.999985 0.000060 0.000119 31.590137 -29.125990 3.432258 139.999985
15 139.999985 0.000060 0.000119 37.216240 -29.697533 10.382074 139.999985
[Rope4_Seg03]
14 139.999924 0.000000 -0.000238 70.596779 -31.550236 29.762781 139.999924
15 139.999924 0.000000 -0.000238 43.275555 -14.315008 31.552271 139.999924
[Rope4_Seg04]
14 139.999985 0.000000 0.000119 1.688214 0.654353 1.698049 139.999985
15 139.999985 0.000000 0.000119 5.530712 -1.271991 5.225616 139.999985
[Rope4_Seg05]
14 139.999802 -0.000060 -0.000119 -31.018372 -12.188909 -21.323475 139.999802
15 139.999802 -0.000060 -0.000119 -7.830924 -12.646467 -11.933714 139.999802
[Rope4_Seg06]
14 139.999924 0.000000 0.000060 -25.227430 0.449125 -10.024290 139.999924
15 139.999924 0.000000 0.000060 -12.715993 -6.296367 -8.180954 139.999924
[Rope4_Seg07]
14 139.999802 0.000000 0.000000 -10.556001 1.914399 -3.662878 139.999802
15 139.999802 0.000000 0.000000 -7.916700 -1.968207 -3.521932 139.999802
[Rope4_Seg08]
14 139.999924 0.000000 0.000119 -7.284739 1.486808 -1.897090 139.999924
15 139.999924 0.000000 0.000119 -7.916998 -0.879222 -2.267751 139.999924
[Rope4_Seg09]
14 90.185791 0.000060 0.000060 -135.617828 2.228885 0.850567 90.185791
15 90.185791 0.000060 0.000060 -135.617828 2.228885 0.850567 90.185791
[L_rear_hand01]
14 101.696655 -8.392275 -7.654577 -31.684452 -23.583008 144.025742 102.329041
15 101.696655 -8.392275 -7.654577 -31.684452 -23.583008 144.025742 102.329041
[L_rear_hand02]
14 102.726799 -1.568258 5.773216 82.701553 38.753956 171.553619 102.900848
15 102.726799 -1.568258 5.773216 82.701553 38.753956 171.553619 102.900848
[L_rear_hand03]
14 104.552910 9.721220 -10.420293 -163.975388 -19.004423 -142.009338 105.519653
15 104.552910 9.721220 -10.420293 -163.975388 -19.004423 -142.009338 105.519653
